# This file uses centimeters as units for non-parametric coordinates.

mtllib Smoke_UV.mtl
g default
v 0.000281 0.298185 0.011185
v -0.075753 -0.245881 -0.015568
v 0.123539 0.332306 -0.017182
v 0.050947 0.322173 -0.146704
v -0.044282 0.245751 -0.111593
v -0.136602 0.137837 -0.047601
v -0.066033 0.204361 0.130505
v 0.183720 0.252743 -0.182882
v 0.073732 0.277870 0.186200
v 0.280862 0.229070 0.020806
v 0.007542 0.137894 -0.303310
v -0.129264 0.114924 -0.231224
v 0.212930 0.156091 0.260471
v 0.305331 0.058241 -0.116211
v 0.168742 0.070917 -0.278940
v -0.210727 0.132632 0.130457
v -0.063753 0.147273 0.303880
v 0.083856 0.120184 0.349229
v 0.282704 0.072069 0.143684
v -0.266227 -0.017591 -0.178781
v -0.290589 0.065863 -0.004448
v -0.245469 0.035205 0.188052
v -0.061177 0.057007 0.356674
v 0.229595 -0.081630 -0.254468
v 0.013933 -0.036656 -0.300803
v -0.164014 -0.042093 -0.304541
v -0.319909 -0.012202 -0.006493
v -0.059986 -0.112354 0.232602
v 0.163186 -0.052690 0.270695
v 0.307806 -0.128407 0.003069
v 0.316431 -0.148867 -0.119587
v -0.224741 -0.181499 -0.194789
v -0.239719 -0.165704 0.005901
v 0.219416 -0.109860 0.162474
v 0.151033 -0.243478 -0.187489
v -0.031990 -0.178594 -0.282587
v 0.251515 -0.233001 -0.010326
v -0.051091 -0.261438 -0.204092
v -0.167269 -0.245047 0.063620
v -0.084168 -0.231762 0.134312
v 0.114034 -0.223025 0.149497
v 0.109670 -0.249664 -0.024312
v 0.026138 -0.275705 -0.123374
vt 0.488898 0.156802
vt 0.454573 0.216570
vt 0.933629 0.625141
vt 0.828447 0.625145
vt 0.717909 0.448390
vt 0.338780 0.222389
vt 0.600218 0.301269
vt 0.422601 0.309963
vt 0.877060 0.765454
vt 0.494560 0.401907
vt 0.301443 0.342938
vt 0.220365 0.257895
vt 0.703103 0.572072
vt 0.614051 0.478795
vt 0.537683 0.455027
vt 0.409207 0.420837
vt 0.750742 0.795916
vt 0.725991 0.677843
vt 0.640190 0.615257
vt 0.564333 0.524298
vt 0.787809 0.896749
vt 0.687597 0.714430
vt 0.486673 0.635062
vt 0.424672 0.532333
vt 0.282908 0.467696
vt 0.230403 0.429330
vt 0.658934 0.870971
vt 0.589876 0.775482
vt 0.353060 0.536455
vt 0.664171 0.998575
vt 0.233685 0.515260
vt 0.577605 0.962090
vt 0.470877 0.840564
vt 0.512571 0.771009
vt 0.462792 0.723299
vt 0.385520 0.084169
vt 0.475693 0.009716
vt 0.595772 0.138200
vt 0.181190 0.074068
vt 0.383403 0.152858
vt 0.209471 0.156622
vt 0.036013 0.149623
vt 0.187007 0.346671
vt 0.103420 0.245595
vt 0.024717 0.333998
vt 0.010134 0.449552
vt 0.122194 0.442897
vt 0.080051 0.506328
vt 0.063209 0.620854
vt 0.308812 0.643985
vt 0.172502 0.555148
vn -0.252126 0.965456 0.065780
vn -0.252126 0.965456 0.065780
vn -0.252126 0.965456 0.065780
vn -0.760299 0.649572 -0.001450
vn -0.760299 0.649571 -0.001450
vn -0.760299 0.649571 -0.001450
vn -0.771116 0.632931 0.069128
vn -0.771116 0.632931 0.069128
vn -0.771116 0.632931 0.069128
vn 0.382667 0.879389 -0.283268
vn 0.382667 0.879389 -0.283268
vn 0.382667 0.879389 -0.283268
vn -0.643486 0.760027 -0.091018
vn -0.643486 0.760027 -0.091018
vn -0.643486 0.760027 -0.091018
vn -0.537249 0.781894 0.316236
vn -0.537249 0.781894 0.316236
vn -0.537249 0.781894 0.316236
vn -0.217778 0.954817 0.202229
vn -0.217778 0.954817 0.202229
vn -0.217778 0.954817 0.202229
vn 0.569577 0.802346 -0.178392
vn 0.569577 0.802345 -0.178392
vn 0.569577 0.802346 -0.178392
vn 0.117890 0.626788 -0.770220
vn 0.117890 0.626788 -0.770220
vn 0.117890 0.626788 -0.770220
vn -0.527911 0.671240 -0.520333
vn -0.527911 0.671240 -0.520334
vn -0.527911 0.671240 -0.520334
vn -0.527911 0.671240 -0.520334
vn -0.786040 0.608778 -0.107377
vn -0.786040 0.608778 -0.107377
vn -0.786040 0.608778 -0.107377
vn 0.474904 0.804163 0.357474
vn 0.474904 0.804163 0.357474
vn 0.474904 0.804163 0.357474
vn 0.474904 0.804163 0.357474
vn 0.842585 0.405222 -0.354748
vn 0.842585 0.405222 -0.354748
vn 0.842585 0.405222 -0.354748
vn 0.305408 0.425007 -0.852112
vn 0.305408 0.425007 -0.852112
vn 0.305408 0.425007 -0.852112
vn -0.438622 0.884900 -0.156726
vn -0.438622 0.884900 -0.156726
vn -0.438622 0.884900 -0.156726
vn -0.425397 0.857929 0.288090
vn -0.425397 0.857929 0.288090
vn -0.425397 0.857929 0.288090
vn -0.311211 0.795766 0.519523
vn -0.311211 0.795766 0.519523
vn -0.311211 0.795766 0.519523
vn -0.311211 0.795766 0.519523
vn 0.260499 0.702005 0.662819
vn 0.260499 0.702005 0.662819
vn 0.260499 0.702005 0.662819
vn 0.993677 0.076196 0.082459
vn 0.993677 0.076196 0.082459
vn 0.993677 0.076196 0.082459
vn 0.749495 0.259915 -0.608852
vn 0.749495 0.259915 -0.608852
vn 0.749495 0.259915 -0.608852
vn -0.713099 0.691600 -0.114797
vn -0.713099 0.691600 -0.114797
vn -0.713099 0.691600 -0.114797
vn -0.478415 0.764151 -0.432658
vn -0.478415 0.764151 -0.432658
vn -0.478415 0.764151 -0.432658
vn -0.455024 0.875278 -0.163836
vn -0.455024 0.875278 -0.163836
vn -0.455024 0.875278 -0.163836
vn -0.844515 0.461629 0.271464
vn -0.844515 0.461629 0.271464
vn -0.844515 0.461629 0.271464
vn -0.661427 0.461201 0.591445
vn -0.661427 0.461201 0.591445
vn -0.661427 0.461201 0.591445
vn -0.661427 0.461201 0.591445
vn -0.171316 0.493749 0.852563
vn -0.171316 0.493749 0.852563
vn -0.171316 0.493749 0.852562
vn 0.899465 0.275829 0.338941
vn 0.899465 0.275829 0.338941
vn 0.899465 0.275829 0.338941
vn 0.757754 0.202776 -0.620235
vn 0.757754 0.202776 -0.620235
vn 0.757754 0.202776 -0.620235
vn 0.145872 -0.008865 -0.989264
vn 0.145872 -0.008865 -0.989264
vn 0.145872 -0.008865 -0.989264
vn 0.021410 -0.013572 -0.999679
vn 0.021410 -0.013572 -0.999679
vn 0.021410 -0.013572 -0.999679
vn -0.473542 0.456508 -0.753233
vn -0.473541 0.456508 -0.753232
vn -0.473542 0.456508 -0.753232
vn -0.656058 0.433620 -0.617707
vn -0.656058 0.433620 -0.617707
vn -0.656058 0.433620 -0.617707
vn -0.893633 0.343215 -0.289179
vn -0.893633 0.343215 -0.289179
vn -0.893633 0.343215 -0.289179
vn -0.904911 0.332934 0.265124
vn -0.904911 0.332934 0.265124
vn -0.904911 0.332934 0.265124
vn -0.554188 -0.494456 0.669618
vn -0.554189 -0.494456 0.669618
vn -0.554188 -0.494456 0.669618
vn 0.582418 -0.099255 0.806807
vn 0.582418 -0.099255 0.806807
vn 0.582418 -0.099255 0.806807
vn 0.792465 -0.159988 0.588560
vn 0.792465 -0.159988 0.588560
vn 0.792465 -0.159988 0.588560
vn 0.996739 0.052419 0.061346
vn 0.996739 0.052419 0.061346
vn 0.996739 0.052419 0.061346
vn 0.851652 0.054142 -0.521303
vn 0.851652 0.054142 -0.521303
vn 0.851652 0.054142 -0.521303
vn 0.193477 -0.079690 -0.977863
vn 0.193477 -0.079690 -0.977863
vn 0.193477 -0.079690 -0.977863
vn -0.781570 -0.138415 -0.608268
vn -0.781570 -0.138415 -0.608268
vn -0.781570 -0.138415 -0.608268
vn -0.969273 -0.240111 -0.053442
vn -0.969273 -0.240111 -0.053442
vn -0.969273 -0.240111 -0.053442
vn -0.849704 -0.464096 -0.250236
vn -0.849704 -0.464096 -0.250236
vn -0.849704 -0.464096 -0.250236
vn 0.091776 -0.491205 0.866196
vn 0.091776 -0.491205 0.866196
vn 0.091776 -0.491205 0.866196
vn 0.091776 -0.491205 0.866196
vn 0.810396 -0.226092 0.540501
vn 0.810396 -0.226092 0.540501
vn 0.810396 -0.226092 0.540501
vn 0.963664 -0.061639 0.259908
vn 0.963664 -0.061639 0.259908
vn 0.963664 -0.061639 0.259908
vn 0.963664 -0.061639 0.259908
vn 0.564091 -0.534329 -0.629518
vn 0.564091 -0.534329 -0.629518
vn 0.564091 -0.534329 -0.629518
vn 0.226789 -0.348037 -0.909636
vn 0.226789 -0.348037 -0.909636
vn 0.226789 -0.348037 -0.909636
vn 0.226789 -0.348037 -0.909636
vn 0.024933 -0.135191 -0.990506
vn 0.024933 -0.135191 -0.990506
vn 0.024933 -0.135191 -0.990506
vn -0.682391 -0.501610 0.531724
vn -0.682391 -0.501610 0.531724
vn -0.682391 -0.501610 0.531724
vn -0.682391 -0.501610 0.531724
vn 0.864066 -0.483126 0.141350
vn 0.864066 -0.483126 0.141350
vn 0.864066 -0.483126 0.141350
vn 0.559351 -0.783409 -0.270919
vn 0.559351 -0.783409 -0.270919
vn 0.559351 -0.783409 -0.270919
vn 0.120008 -0.697259 -0.706703
vn 0.120008 -0.697259 -0.706703
vn 0.120008 -0.697259 -0.706703
vn -0.344431 -0.531660 -0.773760
vn -0.344431 -0.531660 -0.773760
vn -0.344431 -0.531660 -0.773760
vn -0.344431 -0.531660 -0.773760
vn -0.434900 -0.899662 0.038351
vn -0.434900 -0.899662 0.038351
vn -0.434900 -0.899662 0.038351
vn -0.433436 -0.754395 -0.492972
vn -0.433436 -0.754395 -0.492972
vn -0.433436 -0.754395 -0.492972
vn -0.679512 -0.379318 0.627997
vn -0.679512 -0.379318 0.627997
vn -0.679512 -0.379318 0.627997
vn 0.017192 -0.582953 0.812324
vn 0.017192 -0.582953 0.812324
vn 0.017192 -0.582953 0.812324
vn 0.552856 -0.583091 0.595278
vn 0.552856 -0.583091 0.595278
vn 0.552856 -0.583091 0.595278
vn 0.657531 -0.550472 0.514425
vn 0.657531 -0.550472 0.514425
vn 0.657531 -0.550472 0.514425
vn 0.657531 -0.550472 0.514425
vn 0.117434 -0.993049 -0.007879
vn 0.117434 -0.993049 -0.007879
vn 0.117434 -0.993049 -0.007879
vn 0.264370 -0.963940 0.030471
vn 0.264370 -0.963940 0.030471
vn 0.264370 -0.963940 0.030471
vn 0.107300 -0.956382 -0.271697
vn 0.107300 -0.956382 -0.271697
vn 0.107300 -0.956382 -0.271697
vn -0.417176 -0.908597 0.020407
vn -0.417176 -0.908597 0.020407
vn -0.417176 -0.908597 0.020407
vn -0.644541 -0.032857 0.763863
vn -0.644541 -0.032857 0.763863
vn -0.644541 -0.032857 0.763863
vn -0.031530 -0.631399 0.774817
vn -0.031530 -0.631399 0.774817
vn -0.031530 -0.631399 0.774817
vn 0.100952 -0.983784 0.148248
vn 0.100952 -0.983784 0.148248
vn 0.100952 -0.983784 0.148248
vn -0.231607 -0.971530 0.049877
vn -0.231607 -0.971530 0.049877
vn -0.231607 -0.971530 0.049877
vn 0.075521 -0.992344 0.097720
vn 0.075521 -0.992344 0.097720
vn 0.075521 -0.992344 0.097720
vn 0.036511 -0.994735 0.095755
vn 0.036511 -0.994735 0.095755
vn 0.036511 -0.994735 0.095755
vn -0.013009 -0.988325 0.151804
vn -0.013009 -0.988325 0.151804
vn -0.013009 -0.988325 0.151804
vn -0.007438 -0.965555 0.260094
vn -0.007438 -0.965555 0.260094
vn -0.007438 -0.965555 0.260094
s off
g Smoke3:Mesh
usemtl initialShadingGroup
f 1/1/1 3/2/2 4/40/3
f 1/1/4 5/36/5 6/37/6
f 1/1/7 6/37/8 7/38/9
f 3/2/10 8/6/11 4/40/12
f 1/1/13 4/40/14 5/36/15
f 1/1/16 7/38/17 9/7/18
f 1/1/19 9/7/20 3/2/21
f 3/2/22 10/8/23 8/6/24
f 4/40/25 8/6/26 11/41/27
f 4/40/28 11/41/29 12/39/30 5/36/31
f 5/3/32 12/9/33 6/4/34
f 9/7/35 13/10/36 10/8/37 3/2/38
f 10/8/39 14/11/40 8/6/41
f 8/6/42 15/12/43 11/41/44
f 6/4/45 16/13/46 7/5/47
f 7/5/48 16/13/49 17/14/50
f 7/5/51 17/14/52 18/15/53 9/7/54
f 9/7/55 18/15/56 13/10/57
f 10/8/58 19/16/59 14/11/60
f 8/6/61 14/11/62 15/12/63
f 12/9/64 20/17/65 6/4/66
f 6/4/67 20/17/68 21/18/69
f 6/4/70 21/18/71 16/13/72
f 16/13/73 21/18/74 22/19/75
f 16/13/76 22/19/77 23/20/78 17/14/79
f 17/14/80 23/20/81 18/15/82
f 13/10/83 19/16/84 10/8/85
f 14/11/86 24/43/87 15/12/88
f 15/12/89 25/44/90 11/41/91
f 11/41/92 25/44/93 26/42/94
f 11/41/95 26/42/96 12/39/97
f 12/9/98 26/21/99 20/17/100
f 21/18/101 20/17/102 27/22/103
f 21/18/104 27/22/105 22/19/106
f 22/19/107 28/23/108 23/20/109
f 18/15/110 29/24/111 13/10/112
f 13/10/113 29/24/114 19/16/115
f 14/11/116 30/25/117 31/26/118
f 14/11/119 31/26/120 24/43/121
f 15/12/122 24/43/123 25/44/124
f 26/21/125 32/27/126 20/17/127
f 20/17/128 32/27/129 33/28/130
f 20/17/131 33/28/132 27/22/133
f 23/20/134 28/23/135 29/24/136 18/15/137
f 29/24/138 34/29/139 19/16/140
f 19/16/141 34/29/142 30/25/143 14/11/144
f 31/26/145 35/47/146 24/43/147
f 24/43/148 35/47/149 36/45/150 25/44/151
f 25/44/152 36/45/153 26/42/154
f 27/22/155 33/28/156 28/23/157 22/19/158
f 30/25/159 37/31/160 31/26/161
f 31/26/162 37/31/163 35/47/164
f 35/47/165 38/46/166 36/45/167
f 36/30/168 38/32/169 32/27/170 26/21/171
f 32/27/172 2/33/173 33/28/174
f 33/28/175 2/33/176 39/34/177
f 28/23/178 33/28/179 40/35/180
f 28/23/181 41/50/182 29/24/183
f 29/24/184 41/50/185 34/29/186
f 34/29/187 41/50/188 37/31/189 30/25/190
f 37/31/191 42/51/192 35/47/193
f 35/47/194 42/51/195 43/48/196
f 35/47/197 43/48/198 38/46/199
f 32/27/200 38/32/201 2/33/202
f 33/28/203 39/34/204 40/35/205
f 28/23/206 40/35/207 41/50/208
f 41/50/209 42/51/210 37/31/211
f 38/46/212 43/48/213 2/49/214
f 39/34/215 2/33/216 40/35/217
f 40/35/218 2/33/219 41/50/220
f 41/50/221 2/49/222 42/51/223
f 42/51/224 2/49/225 43/48/226
