# File exported by Houdini 17.5.229 (www.sidefx.com)
# 34 points
# 144 vertices
# 40 primitives
# Bounds: [-1.39069986, -0.566430926, -0.874575615] to [1.39069986, 7.2579608, 1.83563995]
g 
v 1.06914961 6.14497471 0.404145062
v 0 7.2579608 0.893993139
v 0 6.28538895 -0.327366412
v 0.645881653 5.79334402 -0.396841466
v -1.06914961 6.14497471 0.404145032
v -0.645881772 5.79334402 -0.396841466
v -0.720515668 5.84938002 1.71675706
v -1.29139566 5.67737722 0.715904057
v 0.720515668 5.84938002 1.71675706
v 1.29139566 5.67737722 0.715903938
v 0.644287467 5.64585114 1.83563995
v -0.644287467 5.64585114 1.83563995
v -0.424183667 -0.142816007 -0.697124422
v -0.4392021 -0.217291713 -0.653622627
v -0.320112258 -0.450107843 -0.517632723
v 0.320112258 -0.450107843 -0.517632723
v 0.43920204 -0.217291713 -0.653622568
v 0.424183577 -0.142816007 -0.697124422
v -0.890193701 -0.0345528126 0.0550111942
v -0.741836548 -0.303662062 0.18779096
v -0.533369184 -0.52067697 0.0922782868
v 0.890193701 -0.0345525742 0.055011142
v 0.533369184 -0.52067697 0.0922782868
v 0.741836488 -0.303662062 0.187790945
v 0 -0.359292567 0.747843385
v 0.465185225 0.0579477549 0.87681371
v 0 -0.566430926 0.487718523
v -0.465185225 0.0579477549 0.87681371
v 0.695349813 2.40987158 -0.874575615
v 1.39069986 2.27144337 0.321823984
v -0.695349991 2.40987158 -0.874575615
v -1.39069986 2.27144337 0.321824104
v -0.695349753 2.13301516 1.51822352
v 0.695349753 2.13301516 1.51822352
vt 0.848971307 0.823366284 0
vt 0.793916821 0.770569026 0
vt 0.855882406 0.690003455 0
vt 0.993905127 0.690003455 0
vt 0.848971307 0.556640625 0
vt 0.793916821 0.609437943 0
vt 0.996101558 0.465914905 0
vt 0.850180447 0.507322192 0
vt 0.797762752 0.460774511 0
vt 0.836201191 0.340073317 0
vt 0.816669941 0.26109162 0
vt 0.778231502 0.140390471 0
vt 0.830649197 0.0938427895 0
vt 0.976570308 0.135250092 0
vt 0.789093137 0.815878928 0
vt 0.812608123 0.98612082 0
vt 0.789093137 0.976612329 0
vt 0.0185546875 0.650073528 0
vt 0.0540580601 0.742914975 0
vt 0.0454534143 0.744788349 0
vt 0.0185546894 0.729933441 0
vt 0.0497387424 0.423310727 0
vt 0.01953125 0.507950664 0
vt 0.0212864187 0.431384534 0
vt 0 0.0932143033 0
vt 0.0302074905 0.177854225 0
vt 0.00175516703 0.169780448 0
vt 0.0282598212 0.803710938 0
vt 2.3919474e-11 0.896245599 0
vt 0 0.829714537 0
vt 0.08294563 0.954271615 0
vt 0.0293960553 0.896245599 0
vt 0.864257813 0.281493604 0
vt 0.996611953 0.285194814 0
vt 0.927876174 0.331750482 0
vt 0.35066238 0.150191873 0
vt 0.36781919 0.603267372 0
vt 0.36781919 0.776739538 0
vt 0.37019363 0.450973094 0
vt 0.792981386 0.600245237 0
vt 0.366750687 0.601164937 0
vt 0.373636544 0.30078125 0
vt 0.349264503 0.982981682 0
vt 0.349264503 0.809509516 0
vt 0.354105294 0.300383747 0
vt 0.793565631 0.279274762 0
vt 0.347219437 0 0
vt 0.0264289919 0.0724147335 0
vt 0.0348833762 0.0657611415 0
vt 0.0540580601 0.637091935 0
vt 0.0544146225 0.535403848 0
vt 0.0807068571 0.44433701 0
vt 0.0867167562 0.256772786 0
vt 0.0611756369 0.156827942 0
vt 0.08294563 0.838219702 0
vt 0.106248014 0.34439221 0
vt 0.0459602401 0.528750241 0
vt 0.813096881 0.321890205 0
vt 0.773450136 0.000919787795 0
vt 0.971534789 0.206054688 0
vt 0.890460432 0.206054688 0
vt 4.78389481e-11 0.962776661 0
vt 0.0282598212 0.98878032 0
vt 0.0454534106 0.635218561 0
vt 0.97535044 0.896245599 0
vt 0.812608123 0.806370437 0
vn 0.467566788 0.691500187 -0.55064404
vn 0.467566758 0.691500187 -0.550643981
vn 0.467566818 0.691500187 -0.550643921
vn 0.467566729 0.691500247 -0.550643921
vn -0.467566758 0.691500127 -0.550643861
vn -0.467566729 0.691500247 -0.550643921
vn -0.467566758 0.691500187 -0.550643921
vn -0.467566729 0.691500247 -0.550643921
vn -0.749212563 0.57512033 0.328507721
vn -0.749212444 0.57512027 0.328507721
vn -0.749212384 0.57512033 0.328507721
vn -0.749212444 0.575120211 0.328507662
vn 0.749212444 0.575120211 0.328507632
vn 0.749212563 0.57512027 0.328507721
vn 0.749212503 0.57512027 0.328507811
vn 0.749212563 0.57512027 0.328507721
vn 0 0.504370272 0.863487363
vn -1.70859824e-08 0.504370332 0.863487482
vn 0 0.504370332 0.863487482
vn 3.56577488e-08 -0.504370332 -0.863487482
vn 4.98302981e-08 -0.504370272 -0.863487482
vn 3.25164223e-07 -0.504370272 -0.863487363
vn 0 -0.504370272 -0.863487482
vn -0.749212444 -0.57512033 -0.328507721
vn -0.749212444 -0.575120389 -0.328507662
vn -0.749212444 -0.575120389 -0.328507721
vn 0.749212563 -0.57512027 -0.328507811
vn 0.749212563 -0.575120151 -0.328507781
vn 0.749212563 -0.57512027 -0.328507751
vn 0.467566699 -0.691500247 0.550643981
vn 0.467566729 -0.691500187 0.5506441
vn 0.467566729 -0.691500247 0.550643981
vn -0.467566639 -0.691500247 0.55064404
vn -0.467566609 -0.691500187 0.55064404
vn -0.467566431 -0.691500247 0.550644159
vn 0 -0.993372858 -0.114937164
vn 0 -0.993372858 -0.114937164
vn 0 -0.993372858 -0.114937164
vn 0.863486826 -0.0187044591 -0.504024565
vn 0.865753114 0.082359165 -0.493648291
vn 0.865753055 0.0823591501 -0.493648291
vn 0 0.0385956317 -0.999254882
vn -5.3584138e-08 0.139809653 -0.990178406
vn 0 0.0385956317 -0.999255002
vn -0.863486886 -0.0187044889 -0.504024446
vn -0.865753233 0.0823591277 -0.493648112
vn -0.863486826 -0.0187044851 -0.504024446
vn -0.863486767 -0.13330473 0.486436605
vn -0.865752935 -0.0325418897 0.499412417
vn -0.863486767 -0.13330473 0.486436605
vn -0 -0.0899923742 0.995942473
vn -0 -0.0899923742 0.995942473
vn 0 -0.190604806 0.981666863
vn 0 -0.190604806 0.981666803
vn 0.863486767 -0.133304715 0.486436516
vn 0.865752995 -0.032541886 0.499412298
vn 0.865753114 -0.0325418897 0.499412358
vn 0.863486707 -0.0187044609 -0.504024565
vn 0.85131216 -0.125840306 -0.509344578
vn 0.85131216 -0.125840247 -0.509344399
vn 0 -0.0693480819 -0.997592568
vn 0 0.0385956317 -0.999254882
vn 0 0.0385956317 -0.999255002
vn 0 -0.0693480819 -0.997592568
vn -0.85131222 -0.125840306 -0.509344578
vn -0.863486886 -0.0187044889 -0.504024446
vn -0.863486826 -0.0187044851 -0.504024446
vn -0.851312041 -0.23882474 0.467151552
vn -0.863486767 -0.13330473 0.486436605
vn -0.863486767 -0.13330473 0.486436605
vn 2.22349481e-08 -0.295316905 0.955399275
vn 0 -0.190604806 0.981666803
vn 0 -0.190604806 0.981666863
vn 0.851312101 -0.238824755 0.467151463
vn 0.863486826 -0.133304715 0.486436576
vn 0.863486767 -0.133304715 0.486436516
vn 0.851312101 -0.23882474 0.467151463
vn 0.863486826 -0.133304715 0.486436576
vn 0.851312101 -0.238824755 0.467151463
vn 0.851312041 -0.23882477 0.467151374
vn -4.91335577e-08 -0.295316964 0.955399454
vn 0 -0.190604806 0.981666803
vn 2.22349481e-08 -0.295316905 0.955399275
vn 0 -0.295316994 0.955399394
vn -0.851312101 -0.238824695 0.467151403
vn -0.863486767 -0.13330473 0.486436605
vn -0.851312041 -0.23882474 0.467151552
vn -0.851312041 -0.238824785 0.467151552
vn -0.85131216 -0.125840276 -0.509344459
vn -0.863486886 -0.0187044889 -0.504024446
vn -0.85131222 -0.125840306 -0.509344578
vn -0.85131216 -0.125840291 -0.509344578
vn 0.851312101 -0.125840306 -0.509344578
vn 0.85131216 -0.125840306 -0.509344578
vn 0.863486707 -0.0187044609 -0.504024565
vn 0.863486826 -0.0187044591 -0.504024565
vn 0.865752995 -0.0325418785 0.499412358
vn 0.865752995 -0.032541886 0.499412298
vn 0.863486767 -0.133304715 0.486436516
vn 0.863486826 -0.133304715 0.486436576
vn -0.865753055 -0.0325417891 0.499412358
vn -0.865752935 -0.0325418897 0.499412417
vn -0.863486767 -0.13330473 0.486436605
vn -0.865753114 -0.032541886 0.499412298
vn -0.865753114 0.0823591799 -0.493648171
vn -0.865753233 0.0823591277 -0.493648112
vn -0.863486886 -0.0187044889 -0.504024446
vn -0.865753293 0.0823591501 -0.493648261
vn 0 0.139809743 -0.990178406
vn -5.3584138e-08 0.139809653 -0.990178406
vn 0 0.0385956317 -0.999254882
vn 8.53477857e-08 0.139809638 -0.990178406
vn 0.865753114 0.0823591202 -0.493648171
vn 0.865753114 0.082359165 -0.493648291
vn 0.863486826 -0.0187044591 -0.504024565
vn 0.863486707 -0.0187044609 -0.504024565
vn 0 -0.993372858 -0.114937164
vn 0 -0.993372858 -0.114937164
vn 0 -0.993372858 -0.114937164
vn 0 -0.993372858 -0.114937164
vn -0.467566758 -0.691500425 0.55064404
vn -0.467566609 -0.691500187 0.55064404
vn -0.467566639 -0.691500247 0.55064404
vn -0.467566609 -0.691500187 0.550643921
vn 0.467566431 -0.691500247 0.550644159
vn 0.467566729 -0.691500187 0.5506441
vn 0.467566699 -0.691500247 0.550643981
vn 0.467566639 -0.691500366 0.550643981
vn 0.749212563 -0.575120151 -0.328507781
vn 0.749212563 -0.575120151 -0.328507781
vn 0.749212563 -0.57512027 -0.328507811
vn 0.749212563 -0.575120211 -0.328507751
vn -0.749212444 -0.575120389 -0.328507662
vn -0.749212444 -0.575120389 -0.328507662
vn -0.749212444 -0.57512033 -0.328507721
vn -0.749212503 -0.57512033 -0.328507751
vn 0 -0.504369915 -0.86348778
vn 4.98302981e-08 -0.504370272 -0.863487482
vn 3.56577488e-08 -0.504370332 -0.863487482
vn 7.803946e-07 -0.504369974 -0.863487661
vn -0 0.504370153 0.863487422
vn -1.70859824e-08 0.504370332 0.863487482
vn 0 0.504370272 0.863487363
vn 2.53267501e-07 0.504370332 0.863487482
g 
f 1/1/1 4/2/2 3/3/3 2/4/4
f 5/5/5 2/4/6 3/3/7 6/6/8
f 2/7/9 5/8/10 8/9/11 7/10/12
f 9/11/13 10/12/14 1/13/15 2/14/16
f 11/15/17 7/16/18 12/17/19
f 15/18/20 18/19/21 17/20/22 16/21/23
f 20/22/24 15/23/25 21/24/26
f 16/25/27 24/26/28 23/27/29
f 24/28/30 27/29/31 23/30/32
f 28/31/33 27/29/34 25/32/35
f 15/33/36 27/34/37 21/35/38
f 30/36/39 1/13/40 10/12/41
f 31/37/42 4/2/43 29/38/44
f 32/39/45 6/40/46 31/41/47
f 33/42/48 8/9/49 32/39/50
f 11/15/51 12/17/52 33/43/53 34/44/54
f 34/45/55 9/11/56 11/46/57
f 29/47/58 17/48/59 18/49/60
f 13/50/61 31/37/62 29/38/63 18/19/64
f 13/51/65 32/39/66 31/41/67
f 19/52/68 33/42/69 32/39/70
f 28/31/71 34/44/72 33/43/73
f 26/53/74 30/36/75 34/45/76
f 22/54/77 30/36/78 26/53/79 24/26/80
f 26/55/81 34/44/82 28/31/83 25/32/84
f 28/56/85 33/42/86 19/52/87 20/22/88
f 19/52/89 32/39/90 13/51/91 14/57/92
f 22/54/93 17/48/94 29/47/95 30/36/96
f 10/12/97 9/11/98 34/45/99 30/36/100
f 7/10/101 8/9/102 33/42/103 12/58/104
f 5/8/105 6/40/106 32/39/107 8/9/108
f 3/3/109 4/2/110 31/37/111 6/6/112
f 4/59/113 1/13/114 30/36/115 29/47/116
f 23/60/117 27/34/118 15/33/119 16/61/120
f 21/62/121 27/29/122 28/31/123 20/63/124
f 25/32/125 27/29/126 24/28/127 26/55/128
f 22/54/129 24/26/130 16/25/131 17/48/132
f 14/57/133 15/23/134 20/22/135 19/52/136
f 13/50/137 18/19/138 15/18/139 14/64/140
f 2/65/141 7/16/142 11/15/143 9/66/144
