# File exported by Houdini 17.5.229 (www.sidefx.com)
# 56 points
# 234 vertices
# 63 primitives
# Bounds: [-1.32918882, -0.568195403, -1.05445218] to [1.32918882, 4.15065289, 1.45728123]
g 
v 0.832068384 2.81834412 -0.44736439
v 1.0785625 3.02786684 0.0250599086
v 0 4.15065289 0.51922065
v 0 3.17692375 -0.703591108
v 0.409706235 2.86199737 -0.751183987
v 0.690209806 1.10826921 -1.01621389
v -0.690209985 1.10826802 -1.01621413
v -0.409706235 2.86199737 -0.751183987
v -0.832068563 2.81834412 -0.447364211
v -1.0785625 3.02786684 0.0250599086
v -1.22551453 2.72157407 0.226142019
v -0.737990737 2.70790815 1.36193967
v -1.0063225 2.62560797 0.894051492
v -1.32918882 1.54633236 0.188805282
v -1.32918882 1.19056773 0.269998252
v -1.30038726 0.698836267 0.297336876
v -1.20994425 0.358032405 0.108559579
v -1.19726932 0.363581598 0.0699373335
v -1.06253183 0.782146156 -0.422689259
v -0.514309585 -0.0724071264 -0.724369287
v -0.320227444 -0.451830417 -0.502744973
v 0.320227444 -0.451830417 -0.502744973
v 0.514309466 -0.0724073648 -0.724369168
v 0.524567544 0.12713027 -0.840920746
v -0.524567664 0.12713027 -0.840920746
v 1.1972692 0.363581717 0.069937095
v 1.20994413 0.358032405 0.108559519
v 1.30038714 0.698836267 0.297336787
v 1.32918882 1.19056821 0.269998133
v 1.32918882 1.5463326 0.188805208
v 1.06253195 0.782145917 -0.42268908
v 0.737990737 2.70790815 1.36193967
v 1.22551453 2.72157407 0.226141989
v 1.0063225 2.62560797 0.894051433
v 0.678555608 2.54468226 1.45728123
v -0.678555667 2.54468226 1.45728123
v -0.821923614 -0.222239077 0.239503399
v -0.53356123 -0.522424936 0.107385539
v 0.53356123 -0.522424936 0.107385539
v 0.821923554 -0.222239077 0.239503369
v -0.670097113 2.10677862 1.45189369
v 0.670097113 2.10677862 1.45189369
v 0.621515393 1.96625042 1.45016479
v -0.621515393 1.96625042 1.45016479
v 1.00590897 0.640212476 0.804007649
v 0.740487635 0.244980037 0.895387948
v 0.413995892 0.211235583 1.13024473
v 0.268498212 0.578387201 1.33834696
v 0 -0.568195403 0.502968073
v 0 -0.298974693 0.841056228
v -0.740487695 0.244980037 0.895387888
v -0.413995892 0.211235583 1.13024473
v -0.268498212 0.578387201 1.33834696
v -1.00590897 0.640212476 0.80400759
v 0.695349813 0.855243385 -1.05445218
v -0.695349991 0.855243385 -1.05445218
vt 0.0029296875 0.643799305 0
vt 0.195651203 0.588433385 0
vt 0.152636185 0.643799305 0
vt 0.19679223 0.53135705 0
vt 0.435188502 0.550527275 0
vt 0.435188651 0.737071335 0
vt 0.19679223 0.75624156 0
vt 0.195651203 0.699165285 0
vt 0.161328107 0.789551735 0
vt 0.999313474 0.456701547 0
vt 0.810800254 0.359229267 0
vt 0.836408973 0.300358891 0
vt 0.538784146 0.376698822 0
vt 0.52696079 0.473933071 0
vt 0.487546206 0.395973921 0
vt 0.48803845 0.390724093 0
vt 0.636641324 0.600525081 0
vt 0.564174116 0.714687169 0
vt 0.564174116 0.572911382 0
vt 0.589149773 0.574297726 0
vt 0.460529357 0.107167609 0
vt 0.472352713 0.204401791 0
vt 0.352614045 0.148226738 0
vt 0.396788239 0.126309216 0
vt 0.163142473 0.216589883 0
vt 0.188513219 0.0896980688 0
vt 0.197025701 0.180485219 0
vt 0.817384303 0.760814726 0
vt 0.796953619 0.952240825 0
vt 0.796953619 0.768846571 0
vt 0.646699429 0.417757988 0
vt 0.602525175 0.395840406 0
vt 0.802287817 0.450016469 0
vt 0.372323483 0.363036186 0
vt 0.40514648 0.48654595 0
vt 0.362304688 0.445429832 0
vt 0.62699002 0.0935049877 0
vt 0.511767268 0.126442716 0
vt 0.511275053 0.12119285 0
vt 0.583372593 0.0856394023 0
vt 0.719194353 0.944532633 0
vt 0.719194353 0.776554704 0
vt 0.738085806 0.76998961 0
vt 0.53115052 0.724609375 0
vt 0.53115052 0.824259996 0
vt 0.478631735 0.804598033 0
vt 0.479513764 0.760477304 0
vt 0.406606883 0.74947238 0
vt 0.405649304 0.860543668 0
vt 0.364257813 0.860543668 0
vt 0.364257813 0.788440466 0
vt 0.479513764 0.960610092 0
vt 0.478631735 0.916489363 0
vt 0.53115052 0.8968274 0
vt 0.53115052 0.996477962 0
vt 0.852539063 0.561249256 0
vt 0.995978236 0.56526053 0
vt 0.921485782 0.615715444 0
vt 0.469748646 0.549832642 0
vt 0.516586781 0.55924803 0
vt 0.793703973 0.541564405 0
vt 0.551039279 0.562225401 0
vt 0.482726753 0.28971681 0
vt 0.594167054 0.21701467 0
vt 0.571636677 0.238637537 0
vt 0.469748646 0.737766027 0
vt 0.427676827 0.508168757 0
vt 0.547104061 0.308276683 0
vt 0.498066574 0.283772588 0
vt 0.181334898 0.0131397154 0
vt 0.162904546 0.0308276732 0
vt 0.501246929 0.0142413517 0
vt 0.452209443 0.0387454219 0
vt 0.239038646 0 0
vt 0.415940911 0.355170637 0
vt 0.760274827 0.26953125 0
vt 0.817978621 0.282670915 0
vt 0.836171031 0.486121118 0
vt 0.205609545 0.272033185 0
vt 0.448274076 0.292694181 0
vt 0.968800902 0.479492188 0
vt 0.880936205 0.479492188 0
vt 0.738085806 0.951097786 0
vt 0.364257813 0.932646871 0
vt 0.406606883 0.971614957 0
vt 0.637008846 0.175898626 0
vt 0.817384303 0.96027261 0
vt 0.997969449 0.860543668 0
vt 0 0.187170297 0
vt 0.589149773 0.713300943 0
vt 0.636641324 0.687073469 0
vt 0.161328107 0.498046875 0
vn 0.467566699 0.691500127 -0.550643921
vn 0.467566758 0.691500247 -0.550643981
vn 0.467566788 0.691500306 -0.550643921
vn 0.585027456 0.211880222 -0.782847047
vn 0.585027456 0.211880207 -0.782847047
vn 0.585027516 0.211880207 -0.782847047
vn -0.585027456 0.211880237 -0.782847047
vn -0.585027456 0.211880237 -0.782847047
vn -0.585027516 0.211880237 -0.782847047
vn -0.467566699 0.691500247 -0.55064404
vn -0.467566729 0.691500187 -0.55064404
vn -0.467566758 0.691500127 -0.550643981
vn -0.749212444 0.57512033 0.328507841
vn -0.749212444 0.57512033 0.3285079
vn -0.749212503 0.575120389 0.3285079
vn -0.9444381 -0.0731333122 -0.320450097
vn -0.866131902 -0.238287285 -0.439357132
vn -0.911065698 -0.155900985 -0.381646693
vn -0.944437981 -0.0731331259 -0.320450485
vn -1.96859862e-08 -0.504370213 -0.863487601
vn 2.0548276e-08 -0.38680774 -0.922160506
vn 0 -0.38680774 -0.922160387
vn -4.61717491e-07 -0.504370093 -0.863487601
vn 0.9444381 -0.0731334835 -0.320449948
vn 0.90516305 0.0237514134 -0.424400538
vn 0.893072665 0.046460174 -0.447507381
vn 0.944437802 -0.0731335133 -0.320450485
vn 0.749212444 0.57512027 0.32850787
vn 0.749212384 0.575120151 0.32850787
vn 0.749212444 0.57512027 0.32850799
vn 3.16185367e-09 0.504370213 0.863487601
vn 0 0.504370153 0.863487542
vn 0 0.504370213 0.863487601
vn -0.944438159 0.0731333941 0.320449889
vn -0.884897947 -0.00345830619 0.465772092
vn -0.89940083 0.0123380534 0.436950833
vn -0.944437981 0.0731333569 0.320450038
vn -0.749212444 -0.57512027 -0.328507811
vn -0.749212384 -0.57512027 -0.328507811
vn -0.780535996 -0.468304247 -0.414070874
vn -0.749212325 -0.57512033 -0.328507811
vn 0.749212563 -0.57512027 -0.328507811
vn 0.772163272 -0.503593802 -0.38750124
vn 0.749212921 -0.57512027 -0.328506768
vn 0.749212623 -0.57512027 -0.328507662
vn 0.899400711 0.0123380497 0.436950803
vn 0.884898007 -0.00345836207 0.465772033
vn 0.944438159 0.0731333867 0.320449948
vn 0.9444381 0.0731333792 0.320450008
vn 2.40945468e-08 -0.0123022497 0.999924362
vn -3.86577277e-08 -0.0402025282 0.999191582
vn 0 -0.0402024835 0.999191582
vn 9.04108276e-07 -0.0123022925 0.999924302
vn 0.585027456 -0.211880326 0.782847166
vn 0.585027337 -0.211880282 0.782847047
vn 0.585027516 -0.211880207 0.782847047
vn 0.585027456 -0.211880356 0.782847047
vn 0.467566758 -0.691500187 0.550643981
vn 0.467566758 -0.691500247 0.550643981
vn 0.467566639 -0.691500306 0.550643981
vn 0.467566699 -0.691500068 0.550644219
vn -0.467566758 -0.691500247 0.550643981
vn -0.467566699 -0.691500127 0.550643921
vn -0.467566788 -0.691500247 0.550643921
vn -0.467566669 -0.691500187 0.550643981
vn -0.585027397 -0.211880267 0.782846987
vn -0.585027456 -0.211880282 0.782847047
vn -0.585027516 -0.211880341 0.782847047
vn -0.585027516 -0.211880192 0.782846987
vn 0 -0.993372858 -0.114937164
vn 0 -0.993372798 -0.114937156
vn 0 -0.993372858 -0.114937164
vn 0.90516305 0.0237514134 -0.424400538
vn 0.865500987 0.0919933245 -0.492387056
vn 0.893072665 0.046460174 -0.447507381
vn 1.09405605e-07 0.149427131 -0.98877269
vn -1.73696968e-08 0.149427131 -0.98877281
vn 1.4168595e-06 0.14942731 -0.98877269
vn -0.865501106 0.091993317 -0.492386937
vn -0.865501106 0.0919933319 -0.492386997
vn -0.865501106 0.0919933766 -0.492387146
vn 0.797506988 -0.334336609 -0.502196908
vn 0.780535996 -0.468304306 -0.414070874
vn 0.797506809 -0.334336609 -0.502197206
vn 0 -0.281414807 -0.959586263
vn 0 -0.281414807 -0.959586263
vn 0 -0.38680774 -0.922160387
vn 2.0548276e-08 -0.38680774 -0.922160506
vn -0.911065698 -0.155900985 -0.381646693
vn -0.797507048 -0.334336549 -0.502196789
vn -0.780535996 -0.468304247 -0.414070874
vn -0.865500987 -0.022874251 0.500384569
vn -0.884897947 -0.00345830619 0.465772092
vn -0.865500987 -0.0228741691 0.500384629
vn -0.797506928 -0.440180123 0.412582338
vn -0.797506869 -0.440180123 0.412582308
vn -0.797506988 -0.440180063 0.412582427
vn 0 -0.0402024835 0.999191582
vn -3.86577277e-08 -0.0402025282 0.999191582
vn 0 -0.0803080499 0.996770024
vn 0 -0.0803080499 0.996770024
vn 0 -0.493101835 0.869971693
vn -1.78281585e-08 -0.493101805 0.869971573
vn 0 -0.493101835 0.869971633
vn 0.865501106 -0.0228742473 0.50038451
vn 0.899400711 0.0123380497 0.436950803
vn 0.865500987 -0.0228742436 0.500384569
vn 0.797506988 -0.440180123 0.412582129
vn 0.797506988 -0.440180153 0.412582189
vn 0.797506988 -0.440180212 0.412582159
vn 0.797506928 -0.440180123 0.412582189
vn 0.797506988 -0.440180153 0.412582189
vn 0.797506988 -0.440180123 0.412582129
vn 0.797507048 -0.440180212 0.412582278
vn 0.865501165 -0.0228743553 0.50038445
vn 0.884898007 -0.00345836207 0.465772033
vn 0.865501046 -0.0228742585 0.500384569
vn 0.865501106 -0.0228741951 0.50038439
vn 0.865501046 -0.0228742585 0.500384569
vn 0.884898007 -0.00345836207 0.465772033
vn 0.899400711 0.0123380497 0.436950803
vn 0.865501106 -0.0228742473 0.50038451
vn 0 -0.493101835 0.869971573
vn -1.78281585e-08 -0.493101805 0.869971573
vn 0 -0.493101835 0.869971693
vn 5.7301758e-08 -0.493101835 0.869971573
vn -0.797506928 -0.440180182 0.412582338
vn -0.797506869 -0.440180123 0.412582308
vn -0.797506928 -0.440180123 0.412582338
vn -0.797506928 -0.440180212 0.412582278
vn -0.865501046 -0.0228739269 0.500384569
vn -0.89940083 0.0123380534 0.436950833
vn -0.865501046 -0.0228743143 0.50038451
vn -0.865501404 -0.0228743739 0.500384033
vn -0.865501046 -0.0228743143 0.50038451
vn -0.89940083 0.0123380534 0.436950833
vn -0.884897947 -0.00345830619 0.465772092
vn -0.865500987 -0.022874251 0.500384569
vn -0.797506988 -0.334336549 -0.50219667
vn -0.797507048 -0.334336549 -0.502196789
vn -0.911065698 -0.155900985 -0.381646693
vn -0.866131902 -0.238287285 -0.439357132
vn 0.772163272 -0.503593802 -0.38750124
vn 0.780535996 -0.468304306 -0.414070874
vn 0.797506988 -0.334336609 -0.502196908
vn 0.797506928 -0.334336728 -0.502196848
vn -0.865501046 0.0919932947 -0.492387176
vn -0.865501106 0.091993317 -0.492387056
vn -0.865501225 0.0919933021 -0.492386997
vn -0.893072665 0.046460133 -0.447507352
vn -0.865501225 0.0919933021 -0.492386997
vn -0.865501106 0.091993317 -0.492387056
vn -0.865501106 0.0919933319 -0.492386997
vn -0.865501106 0.091993317 -0.492386937
vn 1.16902816e-08 0.149427146 -0.98877281
vn -1.76184345e-09 0.149427116 -0.98877275
vn 8.72773995e-08 0.149427086 -0.98877269
vn 1.12952978e-06 0.149426952 -0.98877275
vn 8.72773995e-08 0.149427086 -0.98877269
vn -1.76184345e-09 0.149427116 -0.98877275
vn -1.73696968e-08 0.149427131 -0.98877281
vn 1.09405605e-07 0.149427131 -0.98877269
vn 0.865501106 0.0919932872 -0.492387056
vn 0.865501165 0.0919933319 -0.492387146
vn 0.865501106 0.0919933766 -0.492387235
vn 0.865500748 0.0919935033 -0.492387593
vn 0.865501106 0.0919933766 -0.492387235
vn 0.865501165 0.0919933319 -0.492387146
vn 0.865500987 0.0919933245 -0.492387056
vn 0.90516305 0.0237514134 -0.424400538
vn 0 -0.993372858 -0.114937164
vn 0 -0.993372798 -0.114937156
vn 0 -0.993372858 -0.114937164
vn 0 -0.993372858 -0.114937164
vn -0.585027754 -0.211880162 0.782846987
vn -0.585027456 -0.211880282 0.782847047
vn -0.585027397 -0.211880267 0.782846987
vn -0.585029185 -0.211880669 0.782845616
vn -0.467566669 -0.691500187 0.5506441
vn -0.467566699 -0.691500127 0.550643921
vn -0.467566758 -0.691500247 0.550643981
vn -0.467566758 -0.691500247 0.550643981
vn 0.467566609 -0.691500187 0.55064404
vn 0.467566758 -0.691500247 0.550643981
vn 0.467566758 -0.691500187 0.550643981
vn 0.467566609 -0.691500187 0.550643921
vn 0.585029185 -0.211880669 0.782845616
vn 0.585027337 -0.211880282 0.782847047
vn 0.585027456 -0.211880326 0.782847166
vn 0.585027754 -0.211880177 0.782846987
vn -9.04108845e-07 -0.0123022925 0.999924302
vn -3.86577277e-08 -0.0402025282 0.999191582
vn 2.40945468e-08 -0.0123022497 0.999924362
vn -0 -0.0123022795 0.999924302
vn 0.780535996 -0.468304306 -0.414070874
vn 0.772163272 -0.503593802 -0.38750124
vn 0.749212563 -0.57512027 -0.328507811
vn 0.749212384 -0.575120449 -0.3285079
vn -0.749212444 -0.57512033 -0.328507811
vn -0.749212384 -0.57512027 -0.328507811
vn -0.749212444 -0.57512027 -0.328507811
vn -0.749212444 -0.57512033 -0.328507662
vn -6.23977172e-08 0.504370153 0.863487482
vn 0 0.504370153 0.863487542
vn 3.16185367e-09 0.504370213 0.863487601
vn -0 0.504370213 0.863487601
vn 0.749212503 0.575120211 0.32850787
vn 0.749212384 0.575120151 0.32850787
vn 0.749212444 0.57512027 0.32850787
vn 0.749212503 0.575120211 0.32850787
vn 0.944438398 -0.0731323138 -0.320449114
vn 0.90516305 0.0237514134 -0.424400538
vn 0.9444381 -0.0731334835 -0.320449948
vn 0.944438219 -0.0731338784 -0.320449293
vn 4.61717747e-07 -0.504369974 -0.863487661
vn 2.0548276e-08 -0.38680774 -0.922160506
vn -1.96859862e-08 -0.504370213 -0.863487601
vn 0 -0.504370272 -0.863487482
vn -0.893072665 0.046460133 -0.447507352
vn -0.866131902 -0.238287285 -0.439357132
vn -0.9444381 -0.0731333122 -0.320450097
vn -0.944438219 -0.0731332824 -0.320449382
vn -0.749212384 0.57512033 0.32850793
vn -0.749212444 0.57512033 0.3285079
vn -0.749212444 0.57512033 0.328507841
vn -0.749212444 0.57512027 0.328507841
vn -0.467566758 0.691500366 -0.550643981
vn -0.467566729 0.691500187 -0.55064404
vn -0.467566699 0.691500247 -0.55064404
vn -0.467566729 0.691500247 -0.550643921
vn 0.467566669 0.691500247 -0.550643981
vn 0.467566758 0.691500247 -0.550643981
vn 0.467566699 0.691500127 -0.550643921
vn 0.467566729 0.691500247 -0.550643981
g 
f 3/1/1 5/2/2 4/3/3
f 1/4/4 6/5/5 5/2/6
f 7/6/7 9/7/8 8/8/9
f 10/9/10 8/8/11 9/7/12
f 3/10/13 13/11/14 12/12/15
f 16/13/16 19/14/17 18/15/18 17/16/19
f 22/17/20 25/18/21 24/19/22 23/20/23
f 28/21/24 31/22/25 30/23/26 29/24/27
f 2/25/28 34/26/29 33/27/30
f 32/28/31 36/29/32 35/30/33
f 14/31/34 15/32/35 13/11/36 11/33/37
f 38/34/38 18/15/39 20/35/40 21/36/41
f 39/37/42 26/38/43 27/39/44 40/40/45
f 34/26/46 29/24/47 30/23/48 33/27/49
f 35/30/50 44/41/51 43/42/52 42/43/53
f 45/44/54 48/45/55 47/46/56 46/47/57
f 40/48/58 50/49/59 49/50/60 39/51/61
f 51/52/62 49/50/63 50/49/64 52/53/65
f 53/54/66 54/55/67 51/52/68 52/53/69
f 21/56/70 49/57/71 38/58/72
f 31/22/73 33/27/74 30/23/75
f 55/59/76 5/2/77 6/5/78
f 56/60/79 9/61/80 7/62/81
f 55/63/82 23/64/83 24/65/84
f 56/66/85 55/59/86 24/19/87 25/18/88
f 18/15/89 25/67/90 20/35/91
f 54/68/92 15/32/93 16/13/94
f 16/13/95 51/69/96 54/68/97
f 43/42/98 44/41/99 53/54/100 48/45/101
f 53/54/102 47/46/103 48/45/104
f 35/70/105 34/26/106 32/71/107
f 46/72/108 28/21/109 45/73/110
f 27/39/111 28/21/112 46/72/113 40/40/114
f 28/21/115 29/24/116 42/74/117 45/73/118
f 42/74/119 29/24/120 34/26/121 35/70/122
f 50/49/123 47/46/124 53/54/125 52/53/126
f 37/75/127 51/69/128 16/13/129 17/16/130
f 12/12/131 13/11/132 41/76/133 36/77/134
f 41/76/135 13/11/136 15/32/137 54/68/138
f 56/60/139 25/67/140 18/15/141 19/14/142
f 26/38/143 23/64/144 55/63/145 31/22/146
f 11/33/147 10/78/148 19/14/149 14/31/150
f 19/14/151 10/78/152 9/61/153 56/60/154
f 8/8/155 4/3/156 56/66/157 7/6/158
f 56/66/159 4/3/160 5/2/161 55/59/162
f 1/79/163 2/25/164 55/63/165 6/80/166
f 55/63/167 2/25/168 33/27/169 31/22/170
f 39/81/171 49/57/172 21/56/173 22/82/174
f 41/83/175 54/55/176 53/54/177 44/41/178
f 38/84/179 49/50/180 51/52/181 37/85/182
f 47/46/183 50/49/184 40/48/185 46/47/186
f 43/42/187 48/45/188 45/44/189 42/43/190
f 41/83/191 44/41/192 35/30/193 36/29/194
f 23/64/195 26/38/196 39/37/197 22/86/198
f 17/16/199 18/15/200 38/34/201 37/75/202
f 12/87/203 36/29/204 32/28/205 3/88/206
f 32/71/207 34/26/208 2/25/209 3/89/210
f 26/38/211 31/22/212 28/21/213 27/39/214
f 20/90/215 25/18/216 22/17/217 21/91/218
f 14/31/219 19/14/220 16/13/221 15/32/222
f 11/33/223 13/11/224 3/10/225 10/78/226
f 4/3/227 8/8/228 10/9/229 3/1/230
f 1/4/231 5/2/232 3/1/233 2/92/234
