# File exported by Houdini 17.5.229 (www.sidefx.com)
# 34 points
# 144 vertices
# 40 primitives
# Bounds: [-0.946949899, -0.567552745, -0.667279959] to [0.946949899, 5.28238821, 1.34401464]
g 
v 0.770257294 4.48054886 0.3028135
v 0 5.28238821 0.655719221
v 0 4.58586836 -0.218972564
v 0.464797586 4.23808193 -0.261052251
v -0.770257294 4.48054886 0.3028135
v -0.464797676 4.23808146 -0.26105231
v -0.524891376 4.25624514 1.25509787
v -0.929636955 4.13866091 0.53786844
v 0.929636955 4.13866091 0.537868381
v 0.524891376 4.25624514 1.25509787
v 0.464643031 4.10401869 1.34401464
v -0.464643031 4.10401869 1.34401464
v -0.404679269 -0.178800225 -0.667279959
v -0.425756603 -0.24481529 -0.628720045
v -0.320185423 -0.451203048 -0.508167207
v 0.320185423 -0.451203048 -0.508167207
v 0.425756544 -0.244815528 -0.628719985
v 0.404679179 -0.178800225 -0.667279959
v -0.822372735 -0.113471687 0.0458799638
v -0.710542917 -0.337477088 0.183002323
v -0.533491194 -0.521788239 0.10188324
v 0.822372735 -0.113471687 0.045879893
v 0.533491194 -0.521788239 0.10188324
v 0.710542917 -0.337477088 0.183002308
v 0 -0.394548535 0.714673162
v 0.417239249 -0.0608270764 0.779472113
v 0 -0.567552745 0.497413933
v -0.417239249 -0.0608270764 0.779472113
v 0.47347492 1.37729573 -0.607186198
v 0.946949899 1.2830379 0.207461551
v -0.473475009 1.37729573 -0.607186198
v -0.946949899 1.2830379 0.20746164
v -0.47347486 1.18877983 1.02210927
v 0.47347486 1.18877983 1.02210927
vt 0.863504231 0.745822966 0
vt 0.814340293 0.696692884 0
vt 0.870685458 0.62193495 0
vt 0.99814117 0.62193495 0
vt 0.863504231 0.498046875 0
vt 0.814340234 0.547177076 0
vt 0.999820769 0.422516584 0
vt 0.864204705 0.460762858 0
vt 0.815016747 0.41566658 0
vt 0.849811137 0.304065794 0
vt 0.939273894 0.122622997 0
vt 0.789264262 0.241073743 0
vt 0.754469872 0.129472956 0
vt 0.80365783 0.084376663 0
vt 0.763022304 0.715331733 0
vt 0.785700321 0.874488235 0
vt 0.763022304 0.86479789 0
vt 0.0605468787 0.570436299 0
vt 0.101128295 0.687023461 0
vt 0.0912936181 0.690413535 0
vt 0.060546875 0.673433542 0
vt 0.0941429734 0.371918112 0
vt 0.060546875 0.479454696 0
vt 0.0629701838 0.38070944 0
vt 0 0.0656848624 0
vt 0.0335960984 0.173221409 0
vt 0.00242331158 0.164430127 0
vt 0.031924285 0.67578125 0
vt 0.000976563082 0.790064812 0
vt 0.000976563664 0.704258204 0
vt 0.0871523395 0.857173502 0
vt 0.0326344743 0.790064812 0
vt 0.829101563 0.28284207 0
vt 0.999801636 0.287615776 0
vt 0.911151707 0.347659677 0
vt 0.289011002 0.0089541385 0
vt 0.292247027 0.140816391 0
vt 0.350862712 0.545781314 0
vt 0.350862712 0.698088586 0
vt 0.352793902 0.404323161 0
vt 0.81295526 0.545139551 0
vt 0.349557877 0.536185384 0
vt 0.356029958 0.272460938 0
vt 0.291292399 0.866218388 0
vt 0.291292399 0.713911176 0
vt 0.295483083 0.272678614 0
vt 0.767010629 0.258645713 0
vt 0.0301713366 0.0418609083 0
vt 0.0398219638 0.0342406034 0
vt 0.101128295 0.55684638 0
vt 0.100368835 0.510898948 0
vt 0.126749173 0.398775786 0
vt 0.0910201222 0.262025356 0
vt 0.0662022978 0.146363765 0
vt 0.0871523395 0.722956121 0
vt 0.151566997 0.283114195 0
vt 0.090718247 0.503278673 0
vt 0.827557504 0.286493838 0
vt 0.752408445 0 0
vt 0.967459321 0.185546875 0
vt 0.862895727 0.185546875 0
vt 0.0009765625 0.87587142 0
vt 0.031924285 0.904348314 0
vt 0.0912936628 0.553456366 0
vt 0.938570857 0.790064812 0
vt 0.785700321 0.705641329 0
vn 0.467566818 0.691500247 -0.550643861
vn 0.467566729 0.691500306 -0.550643921
vn 0.467566729 0.691500247 -0.550643921
vn 0.467566818 0.691500187 -0.550643921
vn -0.467566758 0.691500127 -0.550643861
vn -0.467566818 0.691500187 -0.550643921
vn -0.467566758 0.691500127 -0.550643861
vn -0.467566788 0.691500247 -0.550643921
vn -0.749212503 0.57512027 0.328507841
vn -0.749212384 0.57512033 0.328507751
vn -0.749212325 0.57512027 0.328507811
vn -0.749212384 0.575120389 0.328507841
vn 0.749212503 0.57512027 0.328507841
vn 0.749212503 0.575120211 0.328507841
vn 0.749212384 0.57512033 0.328507811
vn 0.749212503 0.575120211 0.328507811
vn 0 0.504370213 0.863487601
vn 9.78851133e-09 0.504370093 0.863487601
vn 0 0.504370093 0.863487542
vn -5.72347538e-08 -0.504370153 -0.863487482
vn -2.21489927e-07 -0.504369795 -0.86348778
vn -1.27880696e-06 -0.504369974 -0.863487661
vn 0 -0.504370391 -0.863487303
vn -0.749212444 -0.57512033 -0.328507811
vn -0.749212444 -0.575120091 -0.328507811
vn -0.749212384 -0.575120151 -0.328507811
vn 0.749212384 -0.575120449 -0.328507781
vn 0.749212444 -0.57512033 -0.328507781
vn 0.749212444 -0.57512027 -0.328507811
vn 0.467566818 -0.691500187 0.55064404
vn 0.467566758 -0.691500187 0.550643981
vn 0.467566788 -0.691500068 0.550644159
vn -0.467566729 -0.691500127 0.550643921
vn -0.467566758 -0.691500127 0.550643861
vn -0.467566878 -0.691500187 0.550643921
vn 0 -0.993372858 -0.114937164
vn 0 -0.993372858 -0.114937164
vn 0 -0.993372798 -0.114937156
vn 0.865490556 0.0225287918 -0.500418246
vn 0.866013646 0.0626488551 -0.49608025
vn 0.865490615 0.0225287825 -0.500418305
vn 0 0.0799618512 -0.99679786
vn -4.56858231e-08 0.120116636 -0.992759824
vn 0 0.0799618661 -0.996797979
vn -0.865490675 0.0225287601 -0.500418186
vn -0.866013646 0.0626488328 -0.496080071
vn -0.865490675 0.0225287676 -0.500418127
vn -0.865490615 -0.0923374146 0.49234122
vn -0.866013527 -0.0522867441 0.497279167
vn -0.865490615 -0.0923373997 0.492341161
vn -0 -0.109754525 0.993958712
vn -0 -0.109754525 0.993958712
vn 0 -0.149770483 0.988720834
vn 0 -0.149770454 0.988720715
vn 0.865490556 -0.0923373997 0.492341161
vn 0.866013527 -0.0522867404 0.497279108
vn 0.866013587 -0.0522867404 0.497279078
vn 0.865490556 0.0225287918 -0.500418246
vn 0.863486469 -0.0187105536 -0.504024982
vn 0.863486409 -0.0187105536 -0.504024982
vn 0 0.0385895222 -0.99925518
vn 0 0.0799618512 -0.99679786
vn 0 0.0799618661 -0.996797979
vn 0 0.0385895222 -0.99925518
vn -0.863486528 -0.0187106505 -0.504024804
vn -0.865490675 0.0225287601 -0.500418186
vn -0.865490675 0.0225287676 -0.500418127
vn -0.86348635 -0.133310765 0.486435592
vn -0.865490615 -0.0923374146 0.49234122
vn -0.865490615 -0.0923373997 0.492341161
vn 6.38968611e-09 -0.190610826 0.98166573
vn 0 -0.149770454 0.988720715
vn 0 -0.149770483 0.988720834
vn 0.86348635 -0.133310735 0.486435473
vn 0.865490556 -0.0923373848 0.492341161
vn 0.865490556 -0.0923373997 0.492341161
vn 0.863486469 -0.133310765 0.486435473
vn 0.865490556 -0.0923373848 0.492341161
vn 0.86348635 -0.133310735 0.486435473
vn 0.863486409 -0.133310676 0.486435592
vn -1.45517651e-08 -0.190610811 0.981665611
vn 0 -0.149770454 0.988720715
vn 6.38968611e-09 -0.190610826 0.98166573
vn 0 -0.190610841 0.98166573
vn -0.86348635 -0.133310765 0.486435652
vn -0.865490615 -0.0923374146 0.49234122
vn -0.86348635 -0.133310765 0.486435592
vn -0.86348635 -0.13331075 0.486435622
vn -0.863486469 -0.0187105797 -0.504024923
vn -0.865490675 0.0225287601 -0.500418186
vn -0.863486528 -0.0187106505 -0.504024804
vn -0.863486409 -0.0187107157 -0.504024744
vn 0.86348635 -0.0187105797 -0.504024923
vn 0.863486469 -0.0187105536 -0.504024982
vn 0.865490556 0.0225287918 -0.500418246
vn 0.865490615 0.0225287825 -0.500418305
vn 0.866013587 -0.0522867218 0.497279108
vn 0.866013527 -0.0522867404 0.497279108
vn 0.865490556 -0.0923373997 0.492341161
vn 0.865490556 -0.0923373848 0.492341161
vn -0.866013467 -0.0522866994 0.497279108
vn -0.866013527 -0.0522867441 0.497279167
vn -0.865490615 -0.0923374146 0.49234122
vn -0.866013706 -0.0522867553 0.497279197
vn -0.866013765 0.062648803 -0.496080101
vn -0.866013646 0.0626488328 -0.496080071
vn -0.865490675 0.0225287601 -0.500418186
vn -0.866013706 0.0626488477 -0.496080041
vn -7.14952153e-10 0.120116711 -0.992759824
vn -4.56858231e-08 0.120116636 -0.992759824
vn 0 0.0799618512 -0.99679786
vn 6.55103207e-08 0.120116621 -0.992759824
vn 0.866013587 0.0626488328 -0.49608013
vn 0.866013646 0.0626488551 -0.49608025
vn 0.865490556 0.0225287918 -0.500418246
vn 0.866013587 0.0626488328 -0.49608013
vn 0 -0.993372798 -0.114937156
vn 0 -0.993372858 -0.114937164
vn 0 -0.993372858 -0.114937164
vn 0 -0.993372858 -0.114937164
vn -0.467566699 -0.691500127 0.550643921
vn -0.467566758 -0.691500127 0.550643861
vn -0.467566729 -0.691500127 0.550643921
vn -0.467566758 -0.691500187 0.55064404
vn 0.467566878 -0.691500187 0.550643921
vn 0.467566758 -0.691500187 0.550643981
vn 0.467566818 -0.691500187 0.55064404
vn 0.467566818 -0.691500127 0.55064404
vn 0.749212384 -0.57512033 -0.328507751
vn 0.749212444 -0.57512033 -0.328507781
vn 0.749212384 -0.575120449 -0.328507781
vn 0.749212325 -0.575120449 -0.328507721
vn -0.749212444 -0.575120091 -0.328507811
vn -0.749212444 -0.575120091 -0.328507811
vn -0.749212444 -0.57512033 -0.328507811
vn -0.749212325 -0.57512027 -0.328507811
vn 0 -0.50437063 -0.863487244
vn -2.21489927e-07 -0.504369795 -0.86348778
vn -5.72347538e-08 -0.504370153 -0.863487482
vn -1.06567416e-06 -0.504370451 -0.863487422
vn -0 0.504370213 0.863487601
vn 9.78851133e-09 0.504370093 0.863487601
vn 0 0.504370213 0.863487601
vn -1.36181598e-07 0.504370153 0.863487542
g 
f 1/1/1 4/2/2 3/3/3 2/4/4
f 5/5/5 2/4/6 3/3/7 6/6/8
f 2/7/9 5/8/10 8/9/11 7/10/12
f 2/11/13 10/12/14 9/13/15 1/14/16
f 11/15/17 7/16/18 12/17/19
f 15/18/20 18/19/21 17/20/22 16/21/23
f 20/22/24 15/23/25 21/24/26
f 16/25/27 24/26/28 23/27/29
f 24/28/30 27/29/31 23/30/32
f 28/31/33 27/29/34 25/32/35
f 15/33/36 27/34/37 21/35/38
f 29/36/39 9/13/40 30/37/41
f 31/38/42 4/2/43 29/39/44
f 32/40/45 6/41/46 31/42/47
f 33/43/48 8/9/49 32/40/50
f 11/15/51 12/17/52 33/44/53 34/45/54
f 34/46/55 10/12/56 11/47/57
f 29/36/58 17/48/59 18/49/60
f 13/50/61 31/38/62 29/39/63 18/19/64
f 13/51/65 32/40/66 31/42/67
f 19/52/68 33/43/69 32/40/70
f 28/31/71 34/45/72 33/44/73
f 26/53/74 30/37/75 34/46/76
f 22/54/77 30/37/78 26/53/79 24/26/80
f 26/55/81 34/45/82 28/31/83 25/32/84
f 28/56/85 33/43/86 19/52/87 20/22/88
f 19/52/89 32/40/90 13/51/91 14/57/92
f 22/54/93 17/48/94 29/36/95 30/37/96
f 9/13/97 10/12/98 34/46/99 30/37/100
f 7/10/101 8/9/102 33/43/103 12/58/104
f 5/8/105 6/41/106 32/40/107 8/9/108
f 3/3/109 4/2/110 31/38/111 6/6/112
f 1/14/113 9/13/114 29/36/115 4/59/116
f 23/60/117 27/34/118 15/33/119 16/61/120
f 21/62/121 27/29/122 28/31/123 20/63/124
f 25/32/125 27/29/126 24/28/127 26/55/128
f 22/54/129 24/26/130 16/25/131 17/48/132
f 14/57/133 15/23/134 20/22/135 19/52/136
f 13/50/137 18/19/138 15/18/139 14/64/140
f 2/65/141 7/16/142 11/15/143 10/66/144
